{
  "asset": {
    "generator": "glTF-Transform v4.2.1",
    "version": "2.0"
  },
  "accessors": [
    {
      "type": "VEC3",
      "componentType": 5126,
      "count": 169,
      "max": [
        0.09820437431335449,
        0.10508597642183304,
        0.0034186318516731262
      ],
      "min": [
        -0.0982050895690918,
        -0.09131177514791489,
        -0.0958496555685997
      ],
      "bufferView": 0,
      "byteOffset": 0
    },
    {
      "type": "VEC3",
      "componentType": 5126,
      "count": 169,
      "bufferView": 0,
      "byteOffset": 12
    },
    {
      "type": "SCALAR",
      "componentType": 5123,
      "count": 936,
      "bufferView": 1,
      "byteOffset": 0
    },
    {
      "type": "SCALAR",
      "componentType": 5123,
      "count": 936,
      "bufferView": 1,
      "byteOffset": 1872
    },
    {
      "type": "SCALAR",
      "componentType": 5123,
      "count": 9762,
      "bufferView": 1,
      "byteOffset": 3744
    },
    {
      "type": "SCALAR",
      "componentType": 5123,
      "count": 6,
      "bufferView": 1,
      "byteOffset": 23268
    },
    {
      "type": "VEC3",
      "componentType": 5126,
      "count": 169,
      "max": [
        -0.1878647804260254,
        0.10508584976196289,
        0.0034186244010925293
      ],
      "min": [
        -0.3842742443084717,
        -0.09131193161010742,
        -0.09584963321685791
      ],
      "bufferView": 2,
      "byteOffset": 0
    },
    {
      "type": "VEC3",
      "componentType": 5126,
      "count": 169,
      "bufferView": 2,
      "byteOffset": 12
    },
    {
      "type": "VEC3",
      "componentType": 5126,
      "count": 1635,
      "max": [
        4.656494617462158,
        1.348741054534912,
        0.2681446075439453
      ],
      "min": [
        -4.656494617462158,
        -25.07656478881836,
        -4.86085319519043
      ],
      "bufferView": 3,
      "byteOffset": 0
    },
    {
      "type": "VEC3",
      "componentType": 5126,
      "count": 1635,
      "bufferView": 3,
      "byteOffset": 12
    },
    {
      "type": "VEC4",
      "componentType": 5126,
      "count": 1635,
      "bufferView": 3,
      "byteOffset": 24
    },
    {
      "type": "VEC4",
      "componentType": 5123,
      "count": 1635,
      "bufferView": 3,
      "byteOffset": 40
    },
    {
      "type": "VEC4",
      "componentType": 5126,
      "count": 1635,
      "bufferView": 3,
      "byteOffset": 48
    },
    {
      "type": "VEC3",
      "componentType": 5126,
      "count": 4,
      "max": [
        1,
        0,
        1
      ],
      "min": [
        -1,
        0,
        -1
      ],
      "bufferView": 4,
      "byteOffset": 0
    },
    {
      "type": "VEC3",
      "componentType": 5126,
      "count": 4,
      "bufferView": 4,
      "byteOffset": 12
    },
    {
      "type": "MAT4",
      "componentType": 5126,
      "count": 63,
      "bufferView": 5,
      "byteOffset": 0
    }
  ],
  "bufferViews": [
    {
      "buffer": 0,
      "byteOffset": 0,
      "byteLength": 4056,
      "byteStride": 24,
      "target": 34962
    },
    {
      "buffer": 0,
      "byteOffset": 4056,
      "byteLength": 23280,
      "target": 34963
    },
    {
      "buffer": 0,
      "byteOffset": 27336,
      "byteLength": 4056,
      "byteStride": 24,
      "target": 34962
    },
    {
      "buffer": 0,
      "byteOffset": 31392,
      "byteLength": 104640,
      "byteStride": 64,
      "target": 34962
    },
    {
      "buffer": 0,
      "byteOffset": 136032,
      "byteLength": 96,
      "byteStride": 24,
      "target": 34962
    },
    {
      "buffer": 0,
      "byteOffset": 136128,
      "byteLength": 4032
    }
  ],
  "buffers": [
    {
      "uri": "buffer.bin",
      "byteLength": 140160
    }
  ],
  "meshes": [
    {
      "primitives": [
        {
          "attributes": {
            "POSITION": 0,
            "NORMAL": 1
          },
          "mode": 4,
          "extras": {
            "__blendVertexMap": [
              1,
              7,
              6,
              0,
              4,
              10,
              9,
              3,
              2,
              8,
              145,
              146,
              16,
              15,
              14,
              13,
              147,
              12,
              21,
              20,
              19,
              18,
              22,
              148,
              149,
              28,
              27,
              26,
              25,
              24,
              34,
              33,
              32,
              31,
              150,
              30,
              37,
              36,
              40,
              39,
              38,
              151,
              152,
              46,
              45,
              44,
              43,
              42,
              50,
              49,
              153,
              52,
              51,
              48,
              55,
              54,
              58,
              57,
              56,
              154,
              63,
              62,
              61,
              60,
              64,
              155,
              69,
              68,
              156,
              71,
              70,
              67,
              77,
              76,
              75,
              74,
              157,
              73,
              82,
              81,
              80,
              79,
              83,
              158,
              159,
              89,
              88,
              87,
              86,
              85,
              95,
              94,
              93,
              92,
              160,
              91,
              98,
              97,
              101,
              100,
              99,
              161,
              162,
              107,
              106,
              105,
              104,
              103,
              111,
              110,
              163,
              113,
              112,
              109,
              119,
              118,
              117,
              116,
              164,
              115,
              124,
              123,
              122,
              121,
              125,
              165,
              166,
              131,
              130,
              129,
              128,
              127,
              137,
              136,
              135,
              134,
              167,
              133,
              140,
              139,
              143,
              142,
              141,
              168,
              66,
              11,
              5,
              17,
              23,
              29,
              35,
              41,
              47,
              53,
              59,
              65,
              72,
              78,
              84,
              90,
              96,
              102,
              108,
              114,
              120,
              126,
              132,
              138,
              144
            ]
          },
          "indices": 2
        }
      ]
    },
    {
      "primitives": [
        {
          "attributes": {
            "POSITION": 6,
            "NORMAL": 7
          },
          "mode": 4,
          "extras": {
            "__blendVertexMap": [
              1,
              0,
              6,
              7,
              4,
              3,
              9,
              10,
              2,
              8,
              145,
              146,
              15,
              16,
              13,
              14,
              147,
              12,
              20,
              21,
              18,
              19,
              22,
              148,
              28,
              149,
              26,
              27,
              24,
              25,
              33,
              34,
              31,
              32,
              150,
              30,
              36,
              37,
              39,
              40,
              38,
              151,
              46,
              152,
              44,
              45,
              42,
              43,
              49,
              50,
              52,
              153,
              51,
              48,
              54,
              55,
              57,
              58,
              56,
              154,
              62,
              63,
              60,
              61,
              64,
              155,
              68,
              69,
              71,
              156,
              70,
              67,
              76,
              77,
              74,
              75,
              157,
              73,
              81,
              82,
              79,
              80,
              83,
              158,
              89,
              159,
              87,
              88,
              85,
              86,
              94,
              95,
              92,
              93,
              160,
              91,
              97,
              98,
              100,
              101,
              99,
              161,
              107,
              162,
              105,
              106,
              103,
              104,
              110,
              111,
              113,
              163,
              112,
              109,
              118,
              119,
              116,
              117,
              164,
              115,
              123,
              124,
              121,
              122,
              125,
              165,
              131,
              166,
              129,
              130,
              127,
              128,
              136,
              137,
              134,
              135,
              167,
              133,
              139,
              140,
              142,
              143,
              141,
              168,
              66,
              5,
              11,
              17,
              23,
              29,
              35,
              41,
              47,
              53,
              59,
              65,
              72,
              78,
              84,
              90,
              96,
              102,
              108,
              114,
              120,
              126,
              132,
              138,
              144
            ]
          },
          "indices": 3
        }
      ]
    },
    {
      "primitives": [
        {
          "attributes": {
            "POSITION": 8,
            "NORMAL": 9,
            "COLOR_0": 10,
            "JOINTS_0": 11,
            "WEIGHTS_0": 12
          },
          "mode": 4,
          "extras": {
            "__blendVertexMap": [
              0,
              1,
              3,
              2,
              5,
              4,
              7,
              6,
              9,
              8,
              11,
              10,
              718,
              719,
              13,
              12,
              15,
              14,
              24,
              25,
              720,
              721,
              17,
              16,
              19,
              20,
              21,
              18,
              26,
              22,
              723,
              23,
              722,
              27,
              28,
              32,
              724,
              30,
              31,
              35,
              725,
              29,
              33,
              34,
              40,
              41,
              38,
              39,
              43,
              44,
              36,
              37,
              726,
              727,
              42,
              48,
              49,
              53,
              729,
              46,
              47,
              51,
              52,
              50,
              45,
              728,
              56,
              57,
              61,
              62,
              54,
              55,
              59,
              730,
              58,
              731,
              60,
              762,
              241,
              71,
              733,
              244,
              243,
              64,
              65,
              246,
              245,
              69,
              70,
              248,
              247,
              67,
              68,
              249,
              66,
              242,
              63,
              761,
              732,
              849,
              850,
              848,
              74,
              75,
              79,
              735,
              77,
              78,
              860,
              76,
              72,
              73,
              734,
              859,
              83,
              84,
              870,
              82,
              80,
              81,
              86,
              87,
              736,
              869,
              737,
              85,
              88,
              89,
              94,
              95,
              92,
              738,
              879,
              90,
              91,
              739,
              93,
              880,
              102,
              740,
              98,
              97,
              103,
              99,
              96,
              104,
              100,
              741,
              101,
              105,
              743,
              107,
              106,
              112,
              111,
              110,
              109,
              108,
              113,
              742,
              121,
              745,
              119,
              120,
              117,
              118,
              908,
              116,
              114,
              115,
              744,
              907,
              125,
              126,
              918,
              124,
              122,
              123,
              128,
              129,
              746,
              917,
              747,
              127,
              928,
              132,
              130,
              131,
              136,
              137,
              134,
              748,
              927,
              133,
              749,
              135,
              144,
              145,
              142,
              750,
              139,
              937,
              140,
              141,
              751,
              143,
              938,
              138,
              755,
              154,
              150,
              752,
              952,
              156,
              147,
              947,
              158,
              157,
              148,
              149,
              754,
              159,
              153,
              753,
              305,
              304,
              191,
              189,
              958,
              948,
              160,
              146,
              303,
              190,
              161,
              155,
              164,
              165,
              169,
              757,
              302,
              299,
              188,
              194,
              166,
              968,
              162,
              163,
              300,
              187,
              756,
              967,
              173,
              174,
              978,
              172,
              170,
              171,
              168,
              176,
              177,
              758,
              977,
              759,
              167,
              175,
              178,
              179,
              184,
              185,
              182,
              760,
              987,
              180,
              181,
              183,
              988,
              292,
              297,
              198,
              199,
              296,
              295,
              201,
              195,
              291,
              197,
              293,
              294,
              196,
              202,
              306,
              301,
              192,
              193,
              367,
              372,
              206,
              207,
              371,
              370,
              209,
              203,
              366,
              205,
              368,
              369,
              204,
              210,
              298,
              200,
              212,
              213,
              215,
              186,
              211,
              152,
              216,
              373,
              208,
              214,
              224,
              222,
              221,
              219,
              217,
              223,
              218,
              220,
              232,
              230,
              229,
              227,
              225,
              226,
              228,
              231,
              238,
              234,
              233,
              239,
              151,
              240,
              236,
              235,
              237,
              250,
              257,
              251,
              253,
              256,
              252,
              255,
              254,
              263,
              264,
              261,
              284,
              265,
              289,
              262,
              286,
              258,
              363,
              362,
              360,
              358,
              259,
              260,
              271,
              272,
              269,
              282,
              273,
              290,
              270,
              287,
              266,
              267,
              268,
              279,
              280,
              277,
              283,
              281,
              288,
              278,
              285,
              274,
              275,
              276,
              308,
              310,
              321,
              322,
              334,
              331,
              347,
              343,
              309,
              314,
              313,
              307,
              318,
              317,
              311,
              312,
              316,
              315,
              320,
              324,
              325,
              319,
              328,
              329,
              323,
              326,
              327,
              330,
              338,
              335,
              332,
              333,
              342,
              339,
              336,
              337,
              341,
              340,
              346,
              351,
              352,
              344,
              345,
              350,
              349,
              354,
              355,
              348,
              353,
              357,
              356,
              359,
              361,
              365,
              364,
              427,
              426,
              428,
              425,
              376,
              763,
              375,
              374,
              775,
              417,
              379,
              764,
              419,
              418,
              378,
              377,
              382,
              765,
              381,
              380,
              772,
              401,
              385,
              766,
              403,
              402,
              384,
              383,
              388,
              767,
              387,
              386,
              774,
              420,
              391,
              768,
              422,
              421,
              390,
              389,
              773,
              408,
              394,
              769,
              410,
              409,
              393,
              392,
              397,
              770,
              396,
              395,
              400,
              771,
              399,
              398,
              406,
              405,
              423,
              407,
              404,
              411,
              412,
              413,
              424,
              416,
              415,
              414,
              639,
              638,
              437,
              438,
              645,
              640,
              440,
              513,
              642,
              641,
              439,
              435,
              643,
              436,
              448,
              444,
              446,
              447,
              450,
              449,
              441,
              442,
              451,
              443,
              515,
              514,
              452,
              445,
              503,
              454,
              455,
              504,
              505,
              453,
              1260,
              1261,
              1259,
              1263,
              456,
              1496,
              1265,
              457,
              659,
              1267,
              458,
              1269,
              459,
              477,
              491,
              492,
              478,
              475,
              463,
              494,
              490,
              510,
              461,
              506,
              493,
              482,
              1277,
              1279,
              465,
              464,
              1352,
              1281,
              466,
              529,
              1283,
              467,
              1285,
              468,
              1287,
              469,
              1470,
              1289,
              470,
              632,
              1291,
              471,
              507,
              508,
              660,
              658,
              661,
              474,
              509,
              472,
              516,
              488,
              480,
              479,
              487,
              489,
              481,
              518,
              517,
              485,
              484,
              486,
              644,
              460,
              1272,
              1273,
              476,
              462,
              498,
              502,
              496,
              511,
              501,
              499,
              500,
              1318,
              497,
              495,
              1317,
              646,
              648,
              473,
              520,
              519,
              522,
              521,
              524,
              523,
              537,
              538,
              526,
              525,
              541,
              542,
              528,
              527,
              530,
              531,
              532,
              533,
              534,
              535,
              536,
              539,
              540,
              543,
              544,
              546,
              548,
              547,
              1371,
              545,
              549,
              550,
              552,
              551,
              1376,
              554,
              556,
              553,
              555,
              1381,
              559,
              1386,
              558,
              560,
              557,
              564,
              563,
              1391,
              562,
              561,
              565,
              566,
              568,
              567,
              1396,
              570,
              572,
              569,
              571,
              1401,
              575,
              1406,
              574,
              576,
              573,
              580,
              579,
              1411,
              578,
              577,
              581,
              582,
              584,
              583,
              1416,
              588,
              587,
              664,
              665,
              590,
              589,
              592,
              591,
              594,
              593,
              585,
              595,
              596,
              597,
              598,
              599,
              602,
              603,
              601,
              600,
              604,
              605,
              606,
              607,
              586,
              619,
              618,
              608,
              610,
              1456,
              620,
              609,
              1443,
              1460,
              623,
              612,
              1447,
              624,
              613,
              625,
              611,
              622,
              621,
              615,
              614,
              626,
              627,
              617,
              616,
              631,
              630,
              636,
              629,
              628,
              635,
              633,
              634,
              637,
              483,
              512,
              433,
              431,
              430,
              429,
              432,
              434,
              647,
              651,
              650,
              649,
              655,
              654,
              652,
              653,
              657,
              656,
              663,
              662,
              669,
              667,
              677,
              681,
              666,
              668,
              712,
              710,
              672,
              670,
              694,
              695,
              678,
              680,
              707,
              704,
              676,
              703,
              674,
              675,
              701,
              700,
              679,
              706,
              705,
              671,
              717,
              711,
              709,
              715,
              713,
              714,
              683,
              686,
              682,
              684,
              673,
              685,
              687,
              689,
              692,
              688,
              690,
              691,
              693,
              697,
              696,
              699,
              698,
              702,
              716,
              708,
              776,
              778,
              779,
              777,
              780,
              781,
              782,
              783,
              784,
              785,
              786,
              787,
              1557,
              788,
              789,
              1558,
              790,
              791,
              801,
              800,
              1559,
              1560,
              792,
              793,
              796,
              795,
              797,
              794,
              802,
              798,
              1562,
              799,
              1561,
              804,
              803,
              1563,
              808,
              807,
              806,
              1564,
              811,
              805,
              810,
              809,
              817,
              816,
              815,
              814,
              820,
              819,
              813,
              812,
              1565,
              1566,
              818,
              825,
              824,
              1568,
              829,
              823,
              822,
              828,
              827,
              826,
              821,
              1567,
              833,
              832,
              838,
              837,
              831,
              830,
              1569,
              835,
              834,
              1570,
              836,
              1601,
              1572,
              847,
              1044,
              1047,
              841,
              840,
              1046,
              1049,
              846,
              845,
              1048,
              1051,
              844,
              843,
              1050,
              1052,
              842,
              839,
              1045,
              1600,
              1571,
              854,
              853,
              1574,
              858,
              857,
              856,
              855,
              852,
              851,
              1573,
              865,
              864,
              863,
              862,
              861,
              868,
              867,
              1575,
              1576,
              866,
              872,
              871,
              878,
              877,
              1577,
              875,
              874,
              873,
              1578,
              876,
              1579,
              887,
              882,
              883,
              888,
              884,
              881,
              889,
              885,
              1580,
              886,
              1582,
              890,
              891,
              892,
              896,
              897,
              894,
              895,
              893,
              898,
              1581,
              1584,
              906,
              905,
              904,
              903,
              902,
              901,
              900,
              899,
              1583,
              913,
              912,
              911,
              910,
              909,
              916,
              915,
              1585,
              1586,
              914,
              921,
              920,
              919,
              926,
              925,
              1587,
              923,
              922,
              1588,
              924,
              936,
              935,
              1589,
              933,
              930,
              932,
              931,
              1590,
              934,
              929,
              1594,
              1591,
              943,
              949,
              940,
              951,
              954,
              942,
              941,
              953,
              1593,
              1592,
              946,
              955,
              1108,
              992,
              994,
              1107,
              939,
              956,
              993,
              1106,
              957,
              950,
              962,
              961,
              1596,
              966,
              1105,
              997,
              991,
              1102,
              963,
              960,
              959,
              990,
              1103,
              1595,
              973,
              972,
              971,
              970,
              969,
              976,
              975,
              965,
              1597,
              1598,
              974,
              964,
              980,
              979,
              986,
              985,
              1599,
              983,
              982,
              981,
              984,
              1095,
              1002,
              1001,
              1100,
              1099,
              998,
              1004,
              1098,
              1094,
              1000,
              1096,
              1005,
              999,
              1097,
              1109,
              996,
              995,
              1104,
              1170,
              1010,
              1009,
              1175,
              1174,
              1006,
              1012,
              1173,
              1169,
              1008,
              1171,
              1013,
              1007,
              1172,
              1003,
              1101,
              1016,
              1015,
              989,
              1018,
              1014,
              1019,
              945,
              1011,
              1176,
              1017,
              1025,
              1027,
              1022,
              1024,
              1020,
              1021,
              1026,
              1023,
              1033,
              1035,
              1030,
              1032,
              1028,
              1031,
              1029,
              1034,
              1037,
              1041,
              1042,
              1036,
              944,
              1039,
              1043,
              1038,
              1040,
              1060,
              1053,
              1056,
              1054,
              1059,
              1055,
              1058,
              1057,
              1067,
              1066,
              1087,
              1064,
              1092,
              1068,
              1089,
              1065,
              1061,
              1166,
              1161,
              1163,
              1165,
              1062,
              1063,
              1075,
              1074,
              1085,
              1072,
              1093,
              1076,
              1090,
              1073,
              1069,
              1070,
              1071,
              1083,
              1082,
              1086,
              1080,
              1091,
              1084,
              1088,
              1081,
              1077,
              1078,
              1079,
              1113,
              1111,
              1125,
              1124,
              1134,
              1137,
              1146,
              1150,
              1112,
              1116,
              1117,
              1110,
              1120,
              1121,
              1115,
              1114,
              1119,
              1118,
              1128,
              1127,
              1123,
              1122,
              1132,
              1131,
              1126,
              1129,
              1130,
              1133,
              1138,
              1141,
              1135,
              1136,
              1142,
              1145,
              1139,
              1140,
              1143,
              1144,
              1155,
              1154,
              1149,
              1147,
              1148,
              1153,
              1158,
              1157,
              1152,
              1151,
              1156,
              1159,
              1160,
              1162,
              1164,
              1168,
              1167,
              1230,
              1229,
              1231,
              1228,
              1602,
              1179,
              1177,
              1178,
              1614,
              1603,
              1182,
              1220,
              1222,
              1180,
              1181,
              1221,
              1604,
              1185,
              1183,
              1184,
              1611,
              1605,
              1188,
              1204,
              1206,
              1186,
              1187,
              1205,
              1606,
              1191,
              1189,
              1190,
              1613,
              1607,
              1194,
              1223,
              1225,
              1192,
              1193,
              1224,
              1612,
              1608,
              1197,
              1211,
              1213,
              1195,
              1196,
              1212,
              1609,
              1200,
              1198,
              1199,
              1610,
              1203,
              1201,
              1202,
              1209,
              1226,
              1208,
              1210,
              1207,
              1214,
              1215,
              1216,
              1227,
              1219,
              1218,
              1217,
              1477,
              1241,
              1240,
              1476,
              1483,
              1335,
              1243,
              1478,
              1480,
              1238,
              1242,
              1479,
              1481,
              1239,
              1251,
              1250,
              1249,
              1247,
              1253,
              1245,
              1244,
              1252,
              1254,
              1246,
              1337,
              1336,
              1248,
              1255,
              1325,
              1326,
              1258,
              1257,
              1256,
              1327,
              1262,
              1498,
              1264,
              1266,
              1268,
              1297,
              1298,
              1312,
              1311,
              1295,
              1310,
              1314,
              1275,
              1332,
              1328,
              1271,
              1302,
              1313,
              1276,
              1278,
              1351,
              1280,
              1282,
              1284,
              1286,
              1469,
              1288,
              1290,
              1329,
              1330,
              1497,
              1499,
              1500,
              1331,
              1294,
              1338,
              1292,
              1308,
              1307,
              1299,
              1300,
              1309,
              1301,
              1340,
              1339,
              1305,
              1306,
              1304,
              1482,
              1270,
              1296,
              1274,
              1324,
              1320,
              1333,
              1316,
              1323,
              1322,
              1321,
              1319,
              1315,
              1486,
              1484,
              1293,
              1341,
              1342,
              1343,
              1344,
              1345,
              1346,
              1360,
              1347,
              1348,
              1361,
              1364,
              1349,
              1350,
              1365,
              1353,
              1354,
              1355,
              1356,
              1357,
              1358,
              1359,
              1362,
              1363,
              1366,
              1367,
              1372,
              1369,
              1370,
              1368,
              1374,
              1373,
              1375,
              1377,
              1382,
              1379,
              1378,
              1380,
              1385,
              1387,
              1384,
              1383,
              1390,
              1392,
              1389,
              1388,
              1394,
              1393,
              1395,
              1397,
              1402,
              1399,
              1398,
              1400,
              1405,
              1407,
              1404,
              1403,
              1410,
              1412,
              1409,
              1408,
              1414,
              1413,
              1415,
              1417,
              1421,
              1504,
              1503,
              1420,
              1422,
              1423,
              1424,
              1425,
              1426,
              1427,
              1428,
              1418,
              1429,
              1430,
              1431,
              1432,
              1436,
              1435,
              1434,
              1433,
              1437,
              1438,
              1439,
              1440,
              1419,
              1454,
              1444,
              1441,
              1453,
              1442,
              1455,
              1446,
              1459,
              1448,
              1461,
              1445,
              1462,
              1458,
              1449,
              1450,
              1457,
              1463,
              1451,
              1452,
              1464,
              1468,
              1467,
              1474,
              1473,
              1465,
              1466,
              1471,
              1472,
              1475,
              1303,
              1334,
              1236,
              1234,
              1233,
              1232,
              1235,
              1237,
              1488,
              1489,
              1485,
              1487,
              1492,
              1493,
              1490,
              1491,
              1494,
              1495,
              1502,
              1501,
              1506,
              1508,
              1520,
              1516,
              1505,
              1507,
              1549,
              1551,
              1511,
              1534,
              1533,
              1509,
              1517,
              1543,
              1546,
              1519,
              1515,
              1542,
              1513,
              1539,
              1540,
              1514,
              1518,
              1544,
              1545,
              1510,
              1556,
              1548,
              1550,
              1552,
              1554,
              1553,
              1525,
              1522,
              1521,
              1523,
              1524,
              1512,
              1526,
              1531,
              1528,
              1527,
              1529,
              1530,
              1532,
              1536,
              1535,
              1537,
              1538,
              1541,
              1555,
              1547,
              1631,
              1630,
              1619,
              1617,
              1621,
              1622,
              1618,
              1623,
              1616,
              1627,
              1625,
              1634,
              1629,
              1633,
              1632,
              1628,
              1624,
              1626,
              1615,
              1620
            ]
          },
          "indices": 4
        }
      ]
    },
    {
      "primitives": [
        {
          "attributes": {
            "POSITION": 13,
            "NORMAL": 14
          },
          "mode": 4,
          "extras": {
            "__blendVertexMap": [
              0,
              1,
              3,
              2
            ]
          },
          "indices": 5
        }
      ]
    }
  ],
  "nodes": [
    {
      "name": "Sphere",
      "translation": [
        0.14303486575933866,
        -0.408921780485767,
        0.2904059110282575
      ],
      "rotation": [
        -0.19793556209925686,
        -1.168526329797341e-7,
        -2.35976551631323e-8,
        0.9802150341922108
      ],
      "mesh": 0
    },
    {
      "name": "Sphere.001",
      "translation": [
        0.14303486575933866,
        -0.408921780485767,
        0.2904059110282575
      ],
      "rotation": [
        -0.19793556209925686,
        -1.168526329797341e-7,
        -2.35976551631323e-8,
        0.9802150341922108
      ],
      "mesh": 1
    },
    {
      "name": "head",
      "translation": [
        1.272060474719793e-15,
        0.30833103359552894,
        -5.3354083373591266e-9
      ],
      "rotation": [
        0.12157451821573802,
        2.0368286265525856e-12,
        2.89873723036038e-8,
        0.9925823071768962
      ],
      "children": [
        0,
        1
      ]
    },
    {
      "name": "neck",
      "translation": [
        -1.0078167545370014e-15,
        0.8139000000409347,
        4.2270891786877485e-9
      ],
      "rotation": [
        0.08301370324250493,
        -1.4181982491530512e-14,
        1.979200983125454e-8,
        0.9965484057856723
      ],
      "children": [
        2
      ]
    },
    {
      "name": "f_index_03_L",
      "translation": [
        -5.561178628710195e-9,
        0.11187629433536905,
        9.984957638486947e-9
      ],
      "rotation": [
        -0.02728362657527369,
        -0.0836117067616998,
        -0.057486854403137,
        0.9944646538636399
      ]
    },
    {
      "name": "f_index_02_L",
      "translation": [
        1.0498875102626926e-9,
        0.09890813153080469,
        -1.8623289299579682e-9
      ],
      "rotation": [
        0.11595653705972707,
        -0.039252797751313316,
        -0.021708210909668516,
        0.9922409248569186
      ],
      "children": [
        4
      ]
    },
    {
      "name": "f_index_01_L",
      "translation": [
        5.829958515946032e-9,
        0.19962857202530593,
        5.671874081514261e-10
      ],
      "rotation": [
        0.2181122434385526,
        -0.08730570485568993,
        -0.07133384000066713,
        0.9693896257092373
      ],
      "children": [
        5
      ]
    },
    {
      "name": "thumb_03_L",
      "translation": [
        1.984945982580477e-8,
        0.1081835692294919,
        -1.5451778523356552e-8
      ],
      "rotation": [
        0.08337720369907654,
        -0.015302728440540175,
        -0.0019309640606143747,
        0.9963986851573994
      ]
    },
    {
      "name": "thumb_02_L",
      "translation": [
        -1.4568496964351141e-8,
        0.12806841553893733,
        1.7671538898866856e-8
      ],
      "rotation": [
        0.13826727987524456,
        -0.13479507562344847,
        0.006350477742762098,
        0.9811585592226417
      ],
      "children": [
        7
      ]
    },
    {
      "name": "thumb_01_L",
      "translation": [
        -0.02701952777007688,
        -0.09777855414288528,
        0.008238574794178444
      ],
      "rotation": [
        -0.0335310133740097,
        0.721278850086263,
        0.3336334460059162,
        0.6060703041748083
      ],
      "children": [
        8
      ]
    },
    {
      "name": "palm_01_L",
      "translation": [
        -0.07299896926800553,
        0.12690545466167125,
        -0.006728779656926531
      ],
      "rotation": [
        -0.05856030813122058,
        0.0795897815333418,
        0.08693981337283786,
        0.9913009764131887
      ],
      "children": [
        6,
        9
      ]
    },
    {
      "name": "f_middle_03_L",
      "translation": [
        -6.835796373394487e-9,
        0.11798022569518007,
        6.676220132284527e-9
      ],
      "rotation": [
        -0.0644518054103867,
        -0.0750821676686014,
        -0.0025745607086732503,
        0.9950889430169959
      ]
    },
    {
      "name": "f_middle_02_L",
      "translation": [
        5.105247669057178e-9,
        0.12233512461696128,
        -8.587033306639569e-9
      ],
      "rotation": [
        -0.01293841754527223,
        -0.08420758059304871,
        0.02192616967099285,
        0.9961229461294664
      ],
      "children": [
        11
      ]
    },
    {
      "name": "f_middle_01_L",
      "translation": [
        1.2305993779548885e-8,
        0.18514093487520933,
        9.318983362760491e-10
      ],
      "rotation": [
        0.2999131436975211,
        -0.05861992454336907,
        -0.08287947800651656,
        0.9485498420268649
      ],
      "children": [
        12
      ]
    },
    {
      "name": "palm_02_L",
      "translation": [
        -0.01705215575819108,
        0.1340720365335586,
        -0.026364938315556197
      ],
      "rotation": [
        -0.010627350608852962,
        0.03275824161460437,
        0.02641625513841502,
        0.9990576252097864
      ],
      "children": [
        13
      ]
    },
    {
      "name": "f_ring_03_L",
      "translation": [
        1.9065349299296486e-10,
        0.09935137813584127,
        -3.909539136870421e-9
      ],
      "rotation": [
        0.0720514583737486,
        -0.12392894146977221,
        0.029003421118690413,
        0.9892466863102565
      ]
    },
    {
      "name": "f_ring_02_L",
      "translation": [
        -1.1844145664241523e-9,
        0.12051045660508697,
        7.942844160169216e-10
      ],
      "rotation": [
        -0.10543282570625706,
        -0.06239443854397393,
        0.016333214614989076,
        0.9923326455391435
      ],
      "children": [
        15
      ]
    },
    {
      "name": "f_ring_01_L",
      "translation": [
        5.626380805701103e-9,
        0.17144748807622312,
        -3.9097225457140894e-10
      ],
      "rotation": [
        0.34140363070943885,
        -0.03332827802188764,
        -0.021344354127156004,
        0.9390831727644714
      ],
      "children": [
        16
      ]
    },
    {
      "name": "palm_03_L",
      "translation": [
        0.031944186107980777,
        0.12788328247895375,
        -0.01929669971621628
      ],
      "rotation": [
        -0.015614926503078882,
        -0.05291534924430176,
        -0.06815664878735805,
        0.9961479865515634
      ],
      "children": [
        17
      ]
    },
    {
      "name": "f_pinky_03_L",
      "translation": [
        2.0487661012147385e-9,
        0.08885723320659622,
        4.207653780952114e-9
      ],
      "rotation": [
        0.06218459394719644,
        -0.016420674979619923,
        0.10923903733722906,
        0.9919325936929771
      ]
    },
    {
      "name": "f_pinky_02_L",
      "translation": [
        2.0305417902655165e-9,
        0.11450864847171172,
        2.88985813057252e-9
      ],
      "rotation": [
        0.046724090873994574,
        -0.029611829038166962,
        -0.006564884501097405,
        0.9984472450783267
      ],
      "children": [
        19
      ]
    },
    {
      "name": "f_pinky_01_L",
      "translation": [
        8.342489365986694e-9,
        0.18976517879834143,
        -2.610416327541998e-9
      ],
      "rotation": [
        0.2524821343458819,
        -0.08771023780060112,
        -0.004058213967530165,
        0.963609473241336
      ],
      "children": [
        20
      ]
    },
    {
      "name": "palm_04_L",
      "translation": [
        0.0781544350792045,
        0.11496757830527127,
        -0.0073368291410690345
      ],
      "rotation": [
        0.00491467886410227,
        -0.11040593051374113,
        -0.1471391933030676,
        0.9829223948171947
      ],
      "children": [
        21
      ]
    },
    {
      "name": "hand_L",
      "translation": [
        3.200951104176397e-8,
        1.0010735612687887,
        1.498794177656748e-8
      ],
      "rotation": [
        0.07879977347427841,
        0.6686824418609,
        -0.06746824386388976,
        0.7362760512938571
      ],
      "children": [
        10,
        14,
        18,
        22
      ]
    },
    {
      "name": "forearm_L",
      "translation": [
        -1.870922372582129e-8,
        0.8287793657680558,
        -5.8910665581835e-9
      ],
      "rotation": [
        0.23430762283467618,
        0.20001525792001712,
        -0.03192154745143426,
        0.9508285067726138
      ],
      "children": [
        23
      ]
    },
    {
      "name": "upper_arm_L",
      "translation": [
        -0.018988019379440668,
        0.6779223898229455,
        0.002260525689852244
      ],
      "rotation": [
        -0.43770111782127147,
        0.599963804850895,
        -0.35426362626328084,
        0.5682943441151386
      ],
      "children": [
        24
      ]
    },
    {
      "name": "shoulder_L",
      "translation": [
        0.05845394192705612,
        0.6826585411250594,
        -0.02431541697795403
      ],
      "rotation": [
        -0.6081686039029418,
        -0.4098001820937513,
        -0.4589897102149658,
        0.501520910838316
      ],
      "children": [
        25
      ]
    },
    {
      "name": "f_index_03_R",
      "translation": [
        -4.876332448944254e-9,
        0.11187633947748177,
        -4.601695691164309e-9
      ],
      "rotation": [
        -0.027283678761380017,
        0.08361170883189431,
        0.057486835314006876,
        0.9944646533613148
      ]
    },
    {
      "name": "f_index_02_R",
      "translation": [
        2.0483588158981547e-9,
        0.09890817246002115,
        -2.7814723857488843e-9
      ],
      "rotation": [
        0.11595659799196882,
        0.03925280433637068,
        0.02170813986383767,
        0.9922409190300071
      ],
      "children": [
        27
      ]
    },
    {
      "name": "f_index_01_R",
      "translation": [
        -4.085435545420069e-9,
        0.19962864128344782,
        5.844852823955193e-9
      ],
      "rotation": [
        0.21811224206071297,
        0.08730568739961872,
        0.07133383945421085,
        0.9693896276315082
      ],
      "children": [
        28
      ]
    },
    {
      "name": "thumb_03_R",
      "translation": [
        7.642275146046984e-10,
        0.10818357410772172,
        7.414902913893684e-9
      ],
      "rotation": [
        0.08337713534799446,
        0.01530270295121912,
        0.0019309364485183102,
        0.9963986913218928
      ]
    },
    {
      "name": "thumb_02_R",
      "translation": [
        -5.805429026395359e-9,
        0.12806845427890634,
        2.4433792766842544e-9
      ],
      "rotation": [
        0.13826727028180855,
        0.13479508911908142,
        -0.006350429741861378,
        0.9811585590312155
      ],
      "children": [
        30
      ]
    },
    {
      "name": "thumb_01_R",
      "translation": [
        0.02701953482499242,
        -0.09777858490528812,
        0.00823857612322998
      ],
      "rotation": [
        -0.0335309680138822,
        -0.7212788632510081,
        -0.33363345084936175,
        0.6060702914921307
      ],
      "children": [
        31
      ]
    },
    {
      "name": "palm_01_R",
      "translation": [
        0.07299896481459944,
        0.126905490470119,
        -0.006728776327452501
      ],
      "rotation": [
        -0.05856029289236949,
        -0.07958973940194969,
        -0.08693980243286885,
        0.9913009816555287
      ],
      "children": [
        29,
        32
      ]
    },
    {
      "name": "f_middle_03_R",
      "translation": [
        8.871977597024738e-10,
        0.11798024051718414,
        4.544971288211741e-9
      ],
      "rotation": [
        -0.06445179586297686,
        0.07508215952380837,
        0.002574572019842015,
        0.9950889442206631
      ]
    },
    {
      "name": "f_middle_02_R",
      "translation": [
        -4.851572033004459e-9,
        0.12233514507963239,
        -5.4416078310026705e-9
      ],
      "rotation": [
        -0.012938415963584462,
        0.08420757347444842,
        -0.021926194811504207,
        0.9961229461984031
      ],
      "children": [
        34
      ]
    },
    {
      "name": "f_middle_01_R",
      "translation": [
        1.0204856959461495e-9,
        0.18514097639042015,
        4.6128312281012995e-9
      ],
      "rotation": [
        0.2999131661283307,
        0.058619928914427306,
        0.08287945246462963,
        0.9485498368964915
      ],
      "children": [
        35
      ]
    },
    {
      "name": "palm_02_R",
      "translation": [
        0.017052132369680617,
        0.13407206520319992,
        -0.026364937798410204
      ],
      "rotation": [
        -0.010627340496079074,
        -0.032758200123057746,
        -0.026416227246576524,
        0.9990576274153234
      ],
      "children": [
        36
      ]
    },
    {
      "name": "f_ring_03_R",
      "translation": [
        1.8597688944410606e-9,
        0.09935140012570365,
        -2.1233722558022805e-9
      ],
      "rotation": [
        0.07205144972200579,
        0.12392893413368126,
        -0.029003455891233113,
        0.989246686839951
      ]
    },
    {
      "name": "f_ring_02_R",
      "translation": [
        -5.086504550888549e-9,
        0.1205104822959826,
        -1.2659239656542809e-8
      ],
      "rotation": [
        -0.1054328786499192,
        0.06239444212683405,
        -0.016333180994972666,
        0.9923326402420996
      ],
      "children": [
        38
      ]
    },
    {
      "name": "f_ring_01_R",
      "translation": [
        5.119311641266222e-10,
        0.17144752080265935,
        3.393808567508927e-9
      ],
      "rotation": [
        0.3414037303270079,
        0.033328277145542554,
        0.02134431557134372,
        0.9390831374559284
      ],
      "children": [
        39
      ]
    },
    {
      "name": "palm_03_R",
      "translation": [
        -0.031944224390078046,
        0.12788330063937092,
        -0.019296695038809486
      ],
      "rotation": [
        -0.015614914902964702,
        0.05291538447208002,
        0.06815666464085189,
        0.9961479837774002
      ],
      "children": [
        40
      ]
    },
    {
      "name": "f_pinky_03_R",
      "translation": [
        -5.046805029440549e-9,
        0.08885724840813358,
        -2.6804578556749448e-9
      ],
      "rotation": [
        0.06218458714191673,
        0.016420651734832592,
        -0.10923908682783831,
        0.9919325890541167
      ]
    },
    {
      "name": "f_pinky_02_R",
      "translation": [
        2.4944517007519096e-9,
        0.11450866654983782,
        1.7835091958851024e-8
      ],
      "rotation": [
        0.046724191253091754,
        0.029611842283336687,
        0.006564850891195693,
        0.9984472402090696
      ],
      "children": [
        42
      ]
    },
    {
      "name": "f_pinky_01_R",
      "translation": [
        7.659273548732415e-9,
        0.1897652140799604,
        5.159497162843252e-9
      ],
      "rotation": [
        0.25248211703219897,
        0.08771021446194469,
        0.004058199479306058,
        0.9636094799631212
      ],
      "children": [
        43
      ]
    },
    {
      "name": "palm_04_R",
      "translation": [
        -0.07815448707497663,
        0.11496758450187894,
        -0.007336819286027807
      ],
      "rotation": [
        0.004914687817324704,
        0.11040596528380621,
        0.14713925312163667,
        0.982922381912343
      ],
      "children": [
        44
      ]
    },
    {
      "name": "hand_R",
      "translation": [
        -2.6837255084899425e-8,
        1.0010737650407062,
        4.2755585738518675e-8
      ],
      "rotation": [
        0.07879975822976175,
        -0.6686824422384039,
        0.0674682479406396,
        0.7362760522078045
      ],
      "children": [
        33,
        37,
        41,
        45
      ]
    },
    {
      "name": "forearm_R",
      "translation": [
        1.2653514902538632e-8,
        0.8287795158749018,
        2.85000999883378e-9
      ],
      "rotation": [
        0.23430766768998573,
        -0.20001530559947703,
        0.031921570856217996,
        0.9508284849023421
      ],
      "children": [
        46
      ]
    },
    {
      "name": "upper_arm_R",
      "translation": [
        0.01898802254407439,
        0.6779223986781915,
        0.0022605068139505136
      ],
      "rotation": [
        -0.4377010603358125,
        -0.599963784073384,
        0.3542636218229735,
        0.5682943919416021
      ],
      "children": [
        47
      ]
    },
    {
      "name": "shoulder_R",
      "translation": [
        -0.05845393033255408,
        0.6826585411250568,
        -0.024315444850964485
      ],
      "rotation": [
        -0.6081686264784872,
        0.4097999718066411,
        0.45898947575697546,
        0.5015211485569122
      ],
      "children": [
        48
      ]
    },
    {
      "name": "chest",
      "translation": [
        8.813234023624933e-23,
        0.5103019434833285,
        3.159238814998133e-9
      ],
      "rotation": [
        -0.07776710998155262,
        1.1884829184983491e-7,
        -9.270561365308508e-9,
        0.9969715525555897
      ],
      "children": [
        3,
        26,
        49
      ]
    },
    {
      "name": "spine",
      "translation": [
        9.138661397373226e-16,
        0.9321828467041207,
        -3.8330314477974525e-9
      ],
      "rotation": [
        0.032292955833397405,
        -1.1914714752844194e-7,
        3.849621359718987e-9,
        0.9994784464927335
      ],
      "children": [
        50
      ]
    },
    {
      "name": "toe_L",
      "translation": [
        2.332323167930639e-8,
        0.41741976718860657,
        3.687155636367123e-9
      ],
      "rotation": [
        -0.09525593944703953,
        0.9666324847110911,
        -0.2330210394099666,
        0.04742510615395869
      ]
    },
    {
      "name": "foot_L",
      "translation": [
        1.9070742207638602e-8,
        1.5355199509213313,
        -3.7312505862807654e-9
      ],
      "rotation": [
        -0.4914056975504964,
        -0.11912599330483772,
        -0.08633002321353182,
        0.8584151473662052
      ],
      "children": [
        52
      ]
    },
    {
      "name": "shin_L",
      "translation": [
        -2.545068455983568e-8,
        1.0364400512061867,
        1.2841807617292034e-9
      ],
      "rotation": [
        0.06936009598174576,
        0.006478288131467197,
        -0.013718423625775402,
        0.9974763223864076
      ],
      "children": [
        53
      ]
    },
    {
      "name": "thigh_L",
      "translation": [
        0.43205648104474437,
        0.04085869270103393,
        0.023328099029846422
      ],
      "rotation": [
        0.9991746792316338,
        0.03273465201897899,
        -0.005751724564281661,
        0.02335210063559848
      ],
      "scale": [
        1.000013571953288,
        1.000000221613496,
        1.000006709099468
      ],
      "children": [
        54
      ]
    },
    {
      "name": "toe_R",
      "translation": [
        2.1698729701924435e-8,
        0.41741978397128554,
        3.230875761373042e-9
      ],
      "rotation": [
        0.09525600421374252,
        0.9666324790767501,
        -0.23302103790817183,
        -0.047425098286806064
      ]
    },
    {
      "name": "foot_R",
      "translation": [
        1.4380766688582014e-8,
        1.5355201893221975,
        -3.807029691493824e-11
      ],
      "rotation": [
        -0.4914057496915857,
        0.11912600290382261,
        0.08633015240666585,
        0.8584151031942409
      ],
      "children": [
        56
      ]
    },
    {
      "name": "shin_R",
      "translation": [
        -9.127994027302577e-9,
        1.0364399958301274,
        -1.0129528466018556e-9
      ],
      "rotation": [
        0.06936011850562723,
        -0.006478333897838262,
        0.013718450232804873,
        0.9974763201570269
      ],
      "children": [
        57
      ]
    },
    {
      "name": "thigh_R",
      "translation": [
        -0.43205649216840236,
        0.04085869270101217,
        0.023327893009236295
      ],
      "rotation": [
        0.9991746792765828,
        -0.032734637014530256,
        0.005751785402683919,
        0.023352104760531008
      ],
      "scale": [
        1.0000129007079706,
        1.0000001610015548,
        1.0000064107246478
      ],
      "children": [
        58
      ]
    },
    {
      "name": "hips",
      "translation": [
        0,
        2.851749897003174,
        0.1313423216342926
      ],
      "rotation": [
        0.039802630935377135,
        1.1911484457608572e-7,
        4.744840734133819e-9,
        0.9992075613057619
      ],
      "children": [
        51,
        55,
        59
      ]
    },
    {
      "name": "thigh_L_001",
      "translation": [
        -0.06742547918033115,
        -2.2824840923460217,
        1.2070281926178306
      ],
      "rotation": [
        3.826067339915825e-7,
        0.7281552878212902,
        0.685412194826891,
        5.757914308066612e-7
      ]
    },
    {
      "name": "shin_L_001",
      "translation": [
        0.6411789059638977,
        0.3507159352302551,
        -0.1392984837293625
      ],
      "rotation": [
        -0.6920202833808969,
        8.605455668854324e-8,
        -8.249523472571358e-8,
        0.7218780557610882
      ],
      "children": [
        61
      ]
    },
    {
      "name": "thigh_R_001",
      "translation": [
        0.06742547918033115,
        -2.2824840923460217,
        1.2070281926178306
      ],
      "rotation": [
        -3.826067339915825e-7,
        0.7281552878212902,
        0.685412194826891,
        -5.757914308066612e-7
      ]
    },
    {
      "name": "shin_R_001",
      "translation": [
        -0.6411789059638977,
        0.3507159352302551,
        -0.1392984837293625
      ],
      "rotation": [
        -0.6920202833808969,
        -8.605455668854324e-8,
        8.249523472571358e-8,
        0.7218780557610882
      ],
      "children": [
        63
      ]
    },
    {
      "name": "body",
      "mesh": 2,
      "skin": 0
    },
    {
      "name": "metarig",
      "children": [
        60,
        62,
        64,
        65
      ]
    },
    {
      "translation": [
        4.076245307922363,
        3.218190908432007,
        4.122835159301758
      ],
      "rotation": [
        -0.7071067811865475,
        0,
        0,
        0.7071067811865476
      ],
      "extensions": {
        "KHR_lights_punctual": {
          "light": 0
        }
      }
    },
    {
      "translation": [
        -6.713974952697754,
        7.9240570068359375,
        -3.8628792762756348
      ],
      "rotation": [
        -0.7071067811865475,
        0,
        0,
        0.7071067811865476
      ],
      "extensions": {
        "KHR_lights_punctual": {
          "light": 1
        }
      }
    },
    {
      "translation": [
        -5.145352363586426,
        6.550809860229492,
        5.1448163986206055
      ],
      "rotation": [
        -0.7071067811865475,
        0,
        0,
        0.7071067811865476
      ],
      "extensions": {
        "KHR_lights_punctual": {
          "light": 2
        }
      }
    },
    {
      "translation": [
        1.3905744552612305,
        8.898504257202148,
        -6.691152572631836
      ],
      "rotation": [
        -0.7071067811865475,
        0,
        0,
        0.7071067811865476
      ],
      "extensions": {
        "KHR_lights_punctual": {
          "light": 3
        }
      }
    },
    {
      "name": "Plane",
      "scale": [
        1.4517436027526855,
        1.4517436027526855,
        1.4517436027526855
      ],
      "mesh": 3
    }
  ],
  "skins": [
    {
      "inverseBindMatrices": 15,
      "skeleton": 60,
      "joints": [
        60,
        62,
        64,
        51,
        55,
        59,
        61,
        63,
        50,
        54,
        58,
        3,
        26,
        49,
        53,
        57,
        2,
        25,
        48,
        52,
        56,
        24,
        47,
        23,
        46,
        10,
        14,
        18,
        22,
        33,
        37,
        41,
        45,
        6,
        9,
        13,
        17,
        21,
        29,
        32,
        36,
        40,
        44,
        5,
        8,
        12,
        16,
        20,
        28,
        31,
        35,
        39,
        43,
        4,
        7,
        11,
        15,
        19,
        27,
        30,
        34,
        38,
        42
      ]
    }
  ],
  "scenes": [
    {
      "name": "Scene",
      "nodes": [
        66,
        67,
        68,
        69,
        70,
        71
      ]
    }
  ],
  "scene": 0,
  "extensionsUsed": [
    "KHR_lights_punctual"
  ],
  "extensions": {
    "KHR_lights_punctual": {
      "lights": [
        {
          "type": "point",
          "intensity": 2
        },
        {
          "type": "point",
          "intensity": 3
        },
        {
          "type": "point",
          "intensity": 2
        },
        {
          "type": "point",
          "intensity": 2
        }
      ]
    }
  }
}